<?xml version="1.0" encoding="utf-8"?>
<svg xmlns="http://www.w3.org/2000/svg" width="64" height="64" viewBox="0 0 80 80">
  <polygon fill="#788b9c" points="10.97,67.804 9.556,66.39 22.945,53 57.055,53 70.36,66.306 68.946,67.72 56.227,55 23.773,55" />
  <rect width="60.114" height="2" x="8.671" y="48" fill="#788b9c" />
  <polygon fill="#788b9c" points="57.055,45 22.945,45 9.556,31.61 10.97,30.196 23.773,43 56.227,43 68.946,30.28 70.36,31.694" />
  <polygon fill="#c5d4de" points="47.972,45 30,45 30,43 49,43 47.987,44.023" />
  <polygon fill="#c5d4de" points="47.972,55 30,55 30,53 49,53 47.987,54.023" />
  <rect width="20" height="2" x="30" y="47.996" fill="#c5d4de" />
  <circle cx="11" cy="67" r="3.5" fill="#c5d4de" />
  <path fill="#788b9c" d="M11,71c-2.206,0-4-1.794-4-4s1.794-4,4-4s4,1.794,4,4S13.206,71,11,71z M11,64c-1.654,0-3,1.346-3,3 s1.346,3,3,3s3-1.346,3-3S12.654,64,11,64z" />
  <circle cx="69" cy="67" r="3.5" fill="#c5d4de" />
  <path fill="#788b9c" d="M69,71c-2.206,0-4-1.794-4-4s1.794-4,4-4s4,1.794,4,4S71.206,71,69,71z M69,64c-1.654,0-3,1.346-3,3 s1.346,3,3,3s3-1.346,3-3S70.654,64,69,64z" />
  <circle cx="11" cy="49" r="3.5" fill="#c5d4de" />
  <path fill="#788b9c" d="M11,53c-2.206,0-4-1.794-4-4s1.794-4,4-4s4,1.794,4,4S13.206,53,11,53z M11,46c-1.654,0-3,1.346-3,3 s1.346,3,3,3s3-1.346,3-3S12.654,46,11,46z" />
  <circle cx="11" cy="31" r="3.5" fill="#c5d4de" />
  <path fill="#788b9c" d="M11,35c-2.206,0-4-1.794-4-4s1.794-4,4-4s4,1.794,4,4S13.206,35,11,35z M11,28c-1.654,0-3,1.346-3,3 s1.346,3,3,3s3-1.346,3-3S12.654,28,11,28z" />
  <g>
    <circle cx="69" cy="31" r="3.5" fill="#c5d4de" />
    <path fill="#788b9c" d="M69,35c-2.206,0-4-1.794-4-4s1.794-4,4-4s4,1.794,4,4S71.206,35,69,35z M69,28c-1.654,0-3,1.346-3,3 s1.346,3,3,3s3-1.346,3-3S70.654,28,69,28z" />
  </g>
  <g>
    <circle cx="69" cy="49" r="3.5" fill="#c5d4de" />
    <path fill="#788b9c" d="M69,53c-2.206,0-4-1.794-4-4s1.794-4,4-4s4,1.794,4,4S71.206,53,69,53z M69,46c-1.654,0-3,1.346-3,3 s1.346,3,3,3s3-1.346,3-3S70.654,46,69,46z" />
  </g>
  <g>
    <path fill="#f5ce85" d="M37.268,69.5L33.5,63.849V33.5H31c-4.136,0-7.5-3.364-7.5-7.5V14c0-4.136,3.364-7.5,7.5-7.5h18 c4.136,0,7.5,3.364,7.5,7.5v12c0,4.136-3.364,7.5-7.5,7.5h-2.5v8.293l-2,2v2.414l2,2v3.586l-2,2v2.414l2,2v5.642L42.732,69.5 H37.268z M33,13.5c-1.378,0-2.5,1.121-2.5,2.5v2c0,1.379,1.122,2.5,2.5,2.5h14c1.378,0,2.5-1.121,2.5-2.5v-2 c0-1.379-1.122-2.5-2.5-2.5H33z" />
    <path fill="#967a44" d="M49,7c3.86,0,7,3.14,7,7v12c0,3.86-3.14,7-7,7h-2h-1v1v7.586l-1.707,1.707L44,43.586V44v2v0.414 l0.293,0.293L46,48.414v3.172l-1.707,1.707L44,53.586V54v2v0.414l0.293,0.293L46,58.414v5.283L42.465,69h-4.93L34,63.697V34v-1h-1 h-2c-3.86,0-7-3.14-7-7V14c0-3.86,3.14-7,7-7H49 M33,21h14c1.654,0,3-1.346,3-3v-2c0-1.654-1.346-3-3-3H33c-1.654,0-3,1.346-3,3v2 C30,19.654,31.346,21,33,21 M49,6H31c-4.418,0-8,3.582-8,8v12c0,4.418,3.582,8,8,8h2v30l4,6h6l4-6v-6l-2-2v-2l2-2v-4l-2-2v-2l2-2 v-8h2c4.418,0,8-3.582,8-8V14C57,9.582,53.418,6,49,6L49,6z M33,20c-1.105,0-2-0.895-2-2v-2c0-1.105,0.895-2,2-2h14 c1.105,0,2,0.895,2,2v2c0,1.105-0.895,2-2,2H33L33,20z" />
  </g>
  <path fill="#dbb065" d="M38,69V33h-1v35.197L37.535,69H38z" />
</svg>